# xmcd CD database file
#
# Track frame offsets:
#	150
#	15569
#	44363
#	59792
#	78398
#	93433
#	108095
#	124312
#	143767
#	160166
#	173256
#	187595
#	209819
#
# Disc length: 3021 seconds
#
# Revision: 0
# Processed by: cddbd v1.5.1PL0 Copyright (c) Steve Scherf et al.
# Submitted via: CDex 1.51
#
DISCID=a70bcb0d
DTITLE=The Chardonnay Sippers - Indulgence
DYEAR=2001
DGENRE=Blues
TTITLE0=Rained Five Days
TTITLE1=Blue Sunday
TTITLE2=But I Do
TTITLE3=The Milky Way
TTITLE4=My Babe
TTITLE5=Old Titanic
TTITLE6=See My Train
TTITLE7=Too Late to Stay
TTITLE8=Buddy Bolden's Blues
TTITLE9=The Feeling Has Gone
TTITLE10=Don't Say No
TTITLE11=Hold Me Tight
TTITLE12=Good Hearted Girl
EXTD=YEAR: 2001
EXTT0=
EXTT1=
EXTT2=
EXTT3=
EXTT4=
EXTT5=
EXTT6=
EXTT7=
EXTT8=
EXTT9=
EXTT10=
EXTT11=
EXTT12=
PLAYORDER=
